# xmcd CD database file
#
# Track frame offsets:
#	150
#	17899
#	41578
#	62205
#	81734
#	100485
#	122878
#	140740
#
# Disc length: 2177 seconds
#
# Revision: 0
# Processed by: cddbd v1.5.2PL0 Copyright (c) Steve Scherf et al.
# Submitted via: jetAudio 7
#
DISCID=7a087f08
DTITLE=Joy (cafegaon) - Ekhon-i (cafegaon)
DYEAR=1900
DGENRE=Blues
TTITLE0=Tore Chhara (cafegaon)
TTITLE1=Bhalo Achhi (cafegaon)
TTITLE2=Ekhon-i (cafegaon)
TTITLE3=Eta Ota (cafegaon)
TTITLE4=Bhalobashi (cafegaon)
TTITLE5=Jokhon (cafegaon)
TTITLE6=Wonderful Tonight - tribute to Eric Clapton (cafegaon)
TTITLE7=Jotsna Dekhar Gaan (cafegaon)
EXTD=
EXTT0=
EXTT1=
EXTT2=
EXTT3=
EXTT4=
EXTT5=
EXTT6=
EXTT7=
PLAYORDER=
